<?xml version="1.0" encoding="UTF-8" standalone="no"?>
<svg
   width="45"
   height="45"
   viewBox="0 0 45 45"
   version="1.1"
   id="svg24"
   sodipodi:docname="dashboard icon active.svg"
   inkscape:version="1.1 (ce6663b3b7, 2021-05-25)"
   xmlns:inkscape="http://www.inkscape.org/namespaces/inkscape"
   xmlns:sodipodi="http://sodipodi.sourceforge.net/DTD/sodipodi-0.dtd"
   xmlns="http://www.w3.org/2000/svg"
   xmlns:svg="http://www.w3.org/2000/svg">
  <sodipodi:namedview
     id="namedview26"
     pagecolor="#ffffff"
     bordercolor="#666666"
     borderopacity="1.0"
     inkscape:pageshadow="2"
     inkscape:pageopacity="0.0"
     inkscape:pagecheckerboard="0"
     showgrid="false"
     inkscape:zoom="10.866667"
     inkscape:cx="22.453988"
     inkscape:cy="22.5"
     inkscape:window-width="1920"
     inkscape:window-height="1052"
     inkscape:window-x="0"
     inkscape:window-y="0"
     inkscape:window-maximized="1"
     inkscape:current-layer="g22" />
  <defs
     id="defs4">
    <style
       id="style2">.a{stroke:#000;}.b{fill:#d5e05b;}.c{stroke:none;}.d{fill:none;}</style>
  </defs>
  <g
     transform="translate(-51 -125)"
     id="g22">
    <g
       transform="translate(60.235 134)"
       id="g20"
       style="fill:#000000">
      <g
         transform="translate(0 0)"
         id="g14"
         style="fill:#000000">
        <path
           class="b"
           d="M259.1,273.426a.71.71,0,0,1-.5-1.212l12.524-12.524a.71.71,0,0,1,1,0l12.321,12.321a.71.71,0,0,1-1,1L271.628,261.2l-12.022,12.022A.708.708,0,0,1,259.1,273.426Z"
           transform="translate(-258.394 -259.483)"
           id="path12"
           style="fill:#000000" />
      </g>
      <g
         transform="translate(2.89 12.814)"
         id="g18"
         style="fill:#000000">
        <path
           class="b"
           d="M331.341,508.557h-6.9a.71.71,0,0,1-.71-.71v-5.51h-3.853v5.51a.71.71,0,0,1-.71.71h-6.9a.71.71,0,0,1-.71-.71V495.934a.71.71,0,1,1,1.42,0v11.2h5.476v-5.51a.71.71,0,0,1,.71-.71h5.273a.71.71,0,0,1,.71.71v5.51h5.476v-11.2a.71.71,0,1,1,1.42,0v11.913A.71.71,0,0,1,331.341,508.557Z"
           transform="translate(-311.566 -495.224)"
           id="path16"
           style="fill:#000000" />
      </g>
    </g>
  </g>
</svg>
