<?xml version="1.0" encoding="UTF-8" standalone="no"?>
<svg
   width="45"
   height="45"
   viewBox="0 0 45 45"
   version="1.1"
   id="svg22"
   sodipodi:docname="education icon.svg"
   inkscape:version="1.1 (ce6663b3b7, 2021-05-25)"
   xmlns:inkscape="http://www.inkscape.org/namespaces/inkscape"
   xmlns:sodipodi="http://sodipodi.sourceforge.net/DTD/sodipodi-0.dtd"
   xmlns="http://www.w3.org/2000/svg"
   xmlns:svg="http://www.w3.org/2000/svg">
  <sodipodi:namedview
     id="namedview24"
     pagecolor="#ffffff"
     bordercolor="#666666"
     borderopacity="1.0"
     inkscape:pageshadow="2"
     inkscape:pageopacity="0.0"
     inkscape:pagecheckerboard="0"
     showgrid="false"
     inkscape:zoom="10.866667"
     inkscape:cx="22.453988"
     inkscape:cy="22.5"
     inkscape:window-width="1920"
     inkscape:window-height="1052"
     inkscape:window-x="0"
     inkscape:window-y="0"
     inkscape:window-maximized="1"
     inkscape:current-layer="g20" />
  <defs
     id="defs4">
    <style
       id="style2">.a,.b,.d{fill:none;}.a,.b{stroke:#000;stroke-width:1.5px;}.a{stroke-linecap:round;stroke-linejoin:round;}.c{stroke:none;}</style>
  </defs>
  <g
     transform="translate(-51 -623)"
     id="g20">
    <g
       transform="translate(65.321 634.269)"
       id="g12">
      <path
         class="a"
         d="M-926.941,625.349V606.113a2.023,2.023,0,0,1,2.021-2.025h13.138a2.023,2.023,0,0,1,2.021,2.025v17.211H-924.92"
         transform="translate(926.941 -604.088)"
         id="path6" />
      <path
         class="a"
         d="M-924.92,627.219h15.158c-2.021,1.012-2.021,3.037,0,4.05H-924.92a2.023,2.023,0,0,1-2.021-2.025h0A2.023,2.023,0,0,1-924.92,627.219Z"
         transform="translate(926.941 -607.983)"
         id="path8" />
      <path
         class="a"
         d="M-911.156,615.225l-3.032-3.037-3.032,3.037V604.089h6.063Z"
         transform="translate(925.304 -604.088)"
         id="path10" />
    </g>
  </g>
</svg>
