<svg xmlns="http://www.w3.org/2000/svg" width="45" height="45" viewBox="0 0 45 45"><defs><style>.a,.b,.d{fill:none;}.a,.b{stroke:#000;stroke-width:1.5px;}.a{stroke-linecap:round;stroke-linejoin:round;}.c{stroke:none;}</style></defs><g transform="translate(-51 -623)"><g transform="translate(65.321 634.269)"><path class="a" d="M-926.941,625.349V606.113a2.023,2.023,0,0,1,2.021-2.025h13.138a2.023,2.023,0,0,1,2.021,2.025v17.211H-924.92" transform="translate(926.941 -604.088)"/><path class="a" d="M-924.92,627.219h15.158c-2.021,1.012-2.021,3.037,0,4.05H-924.92a2.023,2.023,0,0,1-2.021-2.025h0A2.023,2.023,0,0,1-924.92,627.219Z" transform="translate(926.941 -607.983)"/><path class="a" d="M-911.156,615.225l-3.032-3.037-3.032,3.037V604.089h6.063Z" transform="translate(925.304 -604.088)"/></g><g class="b" transform="translate(51 623)"><circle class="c" cx="22.5" cy="22.5" r="22.5"/><circle class="d" cx="22.5" cy="22.5" r="21.75"/></g></g></svg>