<svg xmlns="http://www.w3.org/2000/svg" width="45" height="45" viewBox="0 0 45 45"><defs><style>.a,.d{fill:none;}.a,.b{stroke:#000;}.a{stroke-width:1.5px;}.b{stroke-width:0.5px;}.c{stroke:none;}</style></defs><g transform="translate(-51 -623)"><g class="a" transform="translate(51 623)"><circle class="c" cx="22.5" cy="22.5" r="22.5"/><circle class="d" cx="22.5" cy="22.5" r="21.75"/></g><path class="b" d="M284.542,203.484A15.442,15.442,0,0,0,262.7,225.322l.254.254,3.861-3.861-.254-.254a10.024,10.024,0,0,1,12.691-15.377,6.69,6.69,0,0,1,.694.554l-6.644,5.2a2.151,2.151,0,0,0-1.217,3.649,2.16,2.16,0,0,0,3.052.017,2.116,2.116,0,0,0,.6-1.19l5.286-6.587a9.949,9.949,0,0,1-.348,13.734l-.254.254,3.86,3.861.254-.254a15.442,15.442,0,0,0,0-21.838Zm-9.906,11.51a1.477,1.477,0,0,1-2.037-.011,1.44,1.44,0,1,1,2.451-.852A1.4,1.4,0,0,1,274.635,214.993Zm1.03-1.729v0a2.171,2.171,0,0,0-1.312-1.331l6.125-4.792.058.058Zm8.62,11.293-2.847-2.847a10.791,10.791,0,0,0,1.266-1.645l1.264.73.359-.622-1.267-.732a10.6,10.6,0,0,0,1.25-4.675h1.466v-.718H284.31a10.62,10.62,0,0,0-1.239-4.682l1.256-.725-.359-.622-1.267.731a10.765,10.765,0,0,0-1.218-1.591l1.779-2.216a.359.359,0,0,0-.5-.507l-2.237,1.751a7.685,7.685,0,0,0-.864-.7c-.113-.077-.232-.146-.348-.218l.7-1.21-.622-.359-.7,1.211a10.752,10.752,0,0,0-4.708-1.2v-1.456h-.718v1.461a10.621,10.621,0,0,0-4.683,1.242l-.724-1.254-.622.359.73,1.265a10.463,10.463,0,0,0-3.422,3.424l-1.266-.731-.359.622,1.256.725a10.62,10.62,0,0,0-1.239,4.682H261.47v.718h1.466a10.6,10.6,0,0,0,1.25,4.675l-1.267.732.359.622,1.264-.73a10.783,10.783,0,0,0,1.266,1.645l-2.847,2.847a14.724,14.724,0,1,1,21.325,0Z" transform="translate(-200.123 432.424)"/></g></svg>