<?xml version="1.0" encoding="UTF-8" standalone="no"?>
<svg
   width="45"
   height="45"
   viewBox="0 0 45 45"
   version="1.1"
   id="svg26"
   sodipodi:docname="promo icon.svg"
   inkscape:version="1.1 (ce6663b3b7, 2021-05-25)"
   xmlns:inkscape="http://www.inkscape.org/namespaces/inkscape"
   xmlns:sodipodi="http://sodipodi.sourceforge.net/DTD/sodipodi-0.dtd"
   xmlns="http://www.w3.org/2000/svg"
   xmlns:svg="http://www.w3.org/2000/svg">
  <sodipodi:namedview
     id="namedview28"
     pagecolor="#ffffff"
     bordercolor="#666666"
     borderopacity="1.0"
     inkscape:pageshadow="2"
     inkscape:pageopacity="0.0"
     inkscape:pagecheckerboard="0"
     showgrid="false"
     inkscape:zoom="10.866667"
     inkscape:cx="22.453988"
     inkscape:cy="22.5"
     inkscape:window-width="1920"
     inkscape:window-height="1052"
     inkscape:window-x="0"
     inkscape:window-y="0"
     inkscape:window-maximized="1"
     inkscape:current-layer="g24" />
  <defs
     id="defs4">
    <style
       id="style2">.a,.b{fill:none;}.b{stroke:#000;stroke-linecap:round;stroke-linejoin:round;stroke-width:1.5px;}.c,.d{stroke:none;}.d{fill:#000;}</style>
  </defs>
  <g
     transform="translate(-50 -921)"
     id="g24">
    <g
       transform="translate(60.816 930.128)"
       id="g22">
      <path
         class="b"
         d="M0,0H18.738a0,0,0,0,1,0,0V10.835a1,1,0,0,1-1,1H1a1,1,0,0,1-1-1V0A0,0,0,0,1,0,0Z"
         transform="translate(1.972 10.848)"
         id="path12" />
      <rect
         class="b"
         width="22.683"
         height="3.945"
         rx="1"
         transform="translate(0 6.903)"
         id="rect14" />
      <rect
         class="b"
         width="2.959"
         height="15.78"
         transform="translate(9.862 6.903)"
         id="rect16" />
      <path
         class="b"
         d="M-913.16,736.171a3.456,3.456,0,0,0,3.452-3.452,3.456,3.456,0,0,0-3.452-3.452,3.456,3.456,0,0,0-3.452,3.452v3.452h3.452"
         transform="translate(927.954 -729.267)"
         id="path18" />
      <path
         class="b"
         d="M-920.16,736.171h3.452v-3.452a3.456,3.456,0,0,0-3.452-3.452,3.456,3.456,0,0,0-3.452,3.452,3.456,3.456,0,0,0,3.452,3.452"
         transform="translate(928.05 -729.267)"
         id="path20" />
    </g>
  </g>
</svg>
