<svg xmlns="http://www.w3.org/2000/svg" width="45" height="45" viewBox="0 0 45 45"><defs><style>.a,.d{fill:none;}.a,.b{stroke:#000;}.a{stroke-width:1.5px;}.c{stroke:none;}</style></defs><g transform="translate(-51 -424)"><g class="a" transform="translate(51 424)"><circle class="c" cx="22.5" cy="22.5" r="22.5"/><circle class="d" cx="22.5" cy="22.5" r="21.75"/></g><g transform="translate(-781.426 243.223)"><path class="b" d="M940,516.958l3.147,7.048a1.534,1.534,0,0,1-.774,2.024,1.517,1.517,0,0,1-.624.134,1.536,1.536,0,0,1-1.4-.908l-3.163-7.084a4.428,4.428,0,0,1-.465.114l3.2,7.162a2,2,0,1,0,3.658-1.633l-3.148-7.049Z" transform="translate(-90.118 -306.857)"/><path class="b" d="M1130.245,289.584a2.708,2.708,0,0,1,.77-.114,2.135,2.135,0,0,1,2.014,1.2l1.068,2.392a2.007,2.007,0,0,1-.037,1.673,2.6,2.6,0,0,1-1.012,1.125l.193.434a3.091,3.091,0,0,0,1.247-1.363,2.472,2.472,0,0,0,.038-2.061l-1.069-2.393a2.6,2.6,0,0,0-2.443-1.479,3.2,3.2,0,0,0-.964.151Z" transform="translate(-270.444 -94.414)"/><path class="b" d="M841.605,361.746a4.559,4.559,0,0,0,4.158,2.7h0a4.483,4.483,0,0,0,.836-.079,4.414,4.414,0,0,0,.465-.114,4.545,4.545,0,0,0,.552-.2l2.262-1.011.43-.192.7-.312h-.053a.235.235,0,0,1-.215-.14l-.1-.214-3.219,1.437a4.053,4.053,0,0,1-1.662.356h0a4.089,4.089,0,0,1-3.729-2.418l-1.107-2.478a4.081,4.081,0,0,1,2.063-5.39l3.22-1.438-.1-.215a.234.234,0,0,1,.042-.255l.033-.037-3.39,1.514a4.552,4.552,0,0,0-2.3,6.012Z" transform="translate(0 -152.935)"/><path class="b" d="M929.21,228.126l.1.215,4.434,9.931.1.214a.235.235,0,0,0,.215.14h.053l12.09-.313a1.411,1.411,0,0,1-.07-.134l-.147-.331-11.775.3-4.5-10.075,8.021-8.71-.209-.468-8.231,8.937-.033.037A.234.234,0,0,0,929.21,228.126Z" transform="translate(-83.096 -29.027)"/><path class="b" d="M1050.526,190.338l8.253,18.48.147.331a1.408,1.408,0,0,0,.07.134,1.377,1.377,0,0,0,1.187.681,1.355,1.355,0,0,0,.56-.12,1.377,1.377,0,0,0,.7-1.817l-2.744-6.145-.193-.434-2.8-6.277-.194-.434-2.744-6.145a1.376,1.376,0,1,0-2.512,1.122l.069.156Zm.151-.816a.905.905,0,1,1,1.653-.738l8.679,19.434a.907.907,0,0,1-.458,1.2.9.9,0,0,1-.368.079.906.906,0,0,1-.828-.536Z" transform="translate(-195.897)"/><path class="b" d="M1178.177,212.2l.071.011a.235.235,0,0,0,.224-.163l1.169-3.693a.235.235,0,0,0-.449-.142l-1.168,3.693A.234.234,0,0,0,1178.177,212.2Z" transform="translate(-315.179 -18.912)"/><path class="b" d="M1204.515,258.742a.237.237,0,0,0,.128-.038l3.21-2.094a.236.236,0,0,0-.257-.395l-3.21,2.095a.235.235,0,0,0,.129.432Z" transform="translate(-339.68 -63.799)"/><path class="b" d="M1221.689,318.406a.235.235,0,0,0,.234.214h.022l3.509-.327a.235.235,0,0,0-.044-.468l-3.509.326A.235.235,0,0,0,1221.689,318.406Z" transform="translate(-355.917 -121.297)"/><path class="b" d="M1223.031,359.127a.235.235,0,0,0-.2.428l3.374,1.551a.235.235,0,0,0,.2-.428Z" transform="translate(-356.859 -159.803)"/></g></g></svg>