<?xml version="1.0" encoding="UTF-8" standalone="no"?>
<svg
   width="45"
   height="45"
   viewBox="0 0 45 45"
   version="1.1"
   id="svg26"
   sodipodi:docname="tools icon.svg"
   inkscape:version="1.1 (ce6663b3b7, 2021-05-25)"
   xmlns:inkscape="http://www.inkscape.org/namespaces/inkscape"
   xmlns:sodipodi="http://sodipodi.sourceforge.net/DTD/sodipodi-0.dtd"
   xmlns="http://www.w3.org/2000/svg"
   xmlns:svg="http://www.w3.org/2000/svg">
  <sodipodi:namedview
     id="namedview28"
     pagecolor="#ffffff"
     bordercolor="#666666"
     borderopacity="1.0"
     inkscape:pageshadow="2"
     inkscape:pageopacity="0.0"
     inkscape:pagecheckerboard="0"
     showgrid="false"
     inkscape:zoom="10.866667"
     inkscape:cx="22.453988"
     inkscape:cy="22.5"
     inkscape:window-width="1920"
     inkscape:window-height="1052"
     inkscape:window-x="0"
     inkscape:window-y="0"
     inkscape:window-maximized="1"
     inkscape:current-layer="g22" />
  <defs
     id="defs4">
    <style
       id="style2">.a,.b,.d{fill:none;}.a,.b{stroke:#000;stroke-width:1.5px;}.a{stroke-linejoin:round;}.c{stroke:none;}</style>
  </defs>
  <g
     transform="translate(-51 -523)"
     id="g24">
    <g
       transform="translate(57.864 534.045)"
       id="g16">
      <path
         class="a"
         d="M224.3,142c-9.68,0-15.3,8.649-15.3,8.649s5.622,7.983,15.3,7.983,15.3-7.983,15.3-7.983S233.982,142,224.3,142Z"
         transform="translate(-209 -136.678)"
         id="path6" />
      <path
         class="a"
         d="M234.416,147a6.653,6.653,0,1,1-11.526,0"
         transform="translate(-213.351 -138.351)"
         id="path8" />
      <line
         class="a"
         y1="2"
         transform="translate(15.136 6.955)"
         id="line10" />
      <line
         class="a"
         y2="2"
         transform="translate(15.136 14.955)"
         id="line12" />
      <path
         class="a"
         d="M209,141.318c3.382-3.6,8.972-7.318,15.3-7.318s11.92,3.714,15.3,7.318"
         transform="translate(-209 -134)"
         id="path14" />
    </g>
    <g
       class="b"
       transform="translate(51 523)"
       id="g22">
      <circle
         class="c"
         cx="22.5"
         cy="22.5"
         r="22.5"
         id="circle18" />
    </g>
  </g>
</svg>
