<svg xmlns="http://www.w3.org/2000/svg" width="45" height="45" viewBox="0 0 45 45"><defs><style>.a,.b,.d{fill:none;}.a,.b{stroke:#000;stroke-width:1.5px;}.a{stroke-linejoin:round;}.c{stroke:none;}</style></defs><g transform="translate(-51 -523)"><g transform="translate(57.864 534.045)"><path class="a" d="M224.3,142c-9.68,0-15.3,8.649-15.3,8.649s5.622,7.983,15.3,7.983,15.3-7.983,15.3-7.983S233.982,142,224.3,142Z" transform="translate(-209 -136.678)"/><path class="a" d="M234.416,147a6.653,6.653,0,1,1-11.526,0" transform="translate(-213.351 -138.351)"/><line class="a" y1="2" transform="translate(15.136 6.955)"/><line class="a" y2="2" transform="translate(15.136 14.955)"/><path class="a" d="M209,141.318c3.382-3.6,8.972-7.318,15.3-7.318s11.92,3.714,15.3,7.318" transform="translate(-209 -134)"/></g><g class="b" transform="translate(51 523)"><circle class="c" cx="22.5" cy="22.5" r="22.5"/><circle class="d" cx="22.5" cy="22.5" r="21.75"/></g></g></svg>