<svg xmlns="http://www.w3.org/2000/svg" width="60.934" height="57.756" viewBox="0 0 60.934 57.756"><defs><style>.a{fill:#50b848;stroke:#50b848;}</style></defs><g transform="translate(-1075.582 -726.744)"><g transform="translate(1087.502 727.822)"><g transform="translate(0 -0.577)"><path class="a" d="M385.686,319.718H384.46v-5.376h5.376v1.226h-4.15Z" transform="translate(-384.46 -314.341)"/></g><g transform="translate(30.039 -0.577)"><path class="a" d="M585.836,319.718H584.61v-4.15h-4.15v-1.226h5.377Z" transform="translate(-580.459 -314.341)"/></g><g transform="translate(30.039 27.078)"><path class="a" d="M585.836,500.166H580.46V498.94h4.15v-4.15h1.226Z" transform="translate(-580.459 -494.79)"/></g><g transform="translate(0 27.078)"><path class="a" d="M389.837,500.166H384.46V494.79h1.226v4.15h4.15Z" transform="translate(-384.46 -494.79)"/></g></g><g transform="translate(1076.082 731.381)"><g transform="translate(16.03 0)"><path class="a" d="M2057.985,236.9a13.937,13.937,0,1,1,13.938-13.937A13.953,13.953,0,0,1,2057.985,236.9Zm0-26.4a12.464,12.464,0,1,0,12.464,12.464A12.478,12.478,0,0,0,2057.985,210.5Z" transform="translate(-2044.048 -209.028)"/></g><g transform="translate(0 34.173)"><path class="a" d="M1990.474,439.75h-58.46a.737.737,0,0,1-.737-.737,17.729,17.729,0,0,1,17.709-17.709.737.737,0,1,1,0,1.473,16.256,16.256,0,0,0-16.219,15.5h56.954a16.257,16.257,0,0,0-16.22-15.5.737.737,0,0,1,0-1.473,17.729,17.729,0,0,1,17.709,17.709A.737.737,0,0,1,1990.474,439.75Z" transform="translate(-1931.277 -421.304)"/></g></g></g></svg>