<?xml version="1.0" encoding="UTF-8" standalone="no"?>
<svg
   width="45"
   height="45"
   viewBox="0 0 45 45"
   version="1.1"
   id="svg20"
   sodipodi:docname="wallet icon.svg"
   inkscape:version="1.1 (ce6663b3b7, 2021-05-25)"
   xmlns:inkscape="http://www.inkscape.org/namespaces/inkscape"
   xmlns:sodipodi="http://sodipodi.sourceforge.net/DTD/sodipodi-0.dtd"
   xmlns="http://www.w3.org/2000/svg"
   xmlns:svg="http://www.w3.org/2000/svg">
  <sodipodi:namedview
     id="namedview22"
     pagecolor="#ffffff"
     bordercolor="#666666"
     borderopacity="1.0"
     inkscape:pageshadow="2"
     inkscape:pageopacity="0.0"
     inkscape:pagecheckerboard="0"
     showgrid="false"
     inkscape:zoom="10.866667"
     inkscape:cx="22.453988"
     inkscape:cy="22.5"
     inkscape:window-width="1920"
     inkscape:window-height="1052"
     inkscape:window-x="0"
     inkscape:window-y="0"
     inkscape:window-maximized="1"
     inkscape:current-layer="g18" />
  <defs
     id="defs4">
    <style
       id="style2">.a,.d{fill:none;}.a,.b{stroke:#000;}.a{stroke-width:1.5px;}.b{stroke-width:0.5px;}.c{stroke:none;}</style>
  </defs>
  <g
     transform="translate(-51 -225)"
     id="g18">
    <g
       transform="translate(60.898 236)"
       id="g16">
      <path
         class="b"
         d="M305.273,284.628h-1.2v-4.463a1.554,1.554,0,0,0-1.554-1.554H299.6l-.78-2.15a1,1,0,0,0-.935-.658,1.006,1.006,0,0,0-.339.06l-2,.73-.339-.935a1,1,0,0,0-.935-.658,1.007,1.007,0,0,0-.339.06l-9.716,3.55h-2.664A1.554,1.554,0,0,0,280,280.165v14.542a1.555,1.555,0,0,0,1.554,1.554h20.96a1.554,1.554,0,0,0,1.554-1.554v-4.463h1.2a.4.4,0,0,0,.4-.4v-4.814A.4.4,0,0,0,305.273,284.628Zm-9.453-7.281,2-.73a.19.19,0,0,1,.064-.012.193.193,0,0,1,.18.128l.68,1.877h-6.38l2.7-.989Zm-1.611-1.532a.189.189,0,0,1,.064-.012.193.193,0,0,1,.181.128l.339.937-4.768,1.743h-3.466Zm9.058,18.892a.752.752,0,0,1-.752.752h-20.96a.752.752,0,0,1-.752-.752V280.165a.752.752,0,0,1,.752-.752h20.96a.752.752,0,0,1,.752.752v4.463h-2.808a2.808,2.808,0,1,0,0,5.616h2.808Zm1.6-5.265h-4.413a2.006,2.006,0,1,1,0-4.012h4.413Z"
         transform="translate(-280 -275)"
         id="path12" />
      <path
         class="b"
         d="M761.4,550a1.4,1.4,0,1,0,1.4,1.4A1.406,1.406,0,0,0,761.4,550Zm0,2.006a.6.6,0,1,1,.6-.6A.6.6,0,0,1,761.4,552.006Z"
         transform="translate(-740.745 -538.968)"
         id="path14" />
    </g>
  </g>
</svg>
